<?xml version="1.0" standalone="no"?>
<svg xmlns="http://www.w3.org/2000/svg" viewBox="0 0 122.16 36" width="122.16" height="36"><g fill="#a16aff" color="#a16aff" transform="translate(0 4) scale(0.6363637)"><svg width="44.0" height="44.0" x="0.0" y="0.0" viewBox="0 0 44 44"><path fill="currentColor" fill-rule="evenodd" d="M38.728 38.728c-4.084 4.085-10.73 4.085-14.814 0l-.444-.397c-.097-.097-.916-.91-1.519-2.168a8.669 8.669 0 0 1-1.513 2.212l-.353.353c-4.084 4.085-10.73 4.085-14.814 0-4.084-4.084-4.084-10.73 0-14.814l11.891-11.89.857.856-11.89 11.891c-3.613 3.612-3.613 9.489 0 13.1 3.611 3.614 9.488 3.614 13.1 0l.371-.372c.938-.973 1.646-2.475 1.698-4.023 0-.045.004-.09.005-.135.01-1.21-.385-2.435-1.398-3.45l-1.888-1.886-.18-.194-3.395-3.393.857-.857 4.739 4.739.397.405c.703.704 1.202 1.403 1.545 2.087.345-.66.834-1.335 1.517-2.018l.065-.073 11.892-11.89a5.851 5.851 0 0 0 0-8.265 5.85 5.85 0 0 0-8.263 0l-.353.354-.857-.857.353-.353c2.75-2.75 7.226-2.75 9.976 0 2.751 2.75 2.751 7.226 0 9.976L24.418 29.558l-.375.377c-2.38 2.38-1.446 5.788.295 7.527l.433.41c3.612 3.613 9.488 3.613 13.1 0 3.613-3.612 3.613-9.489 0-13.1l-.353-.354.857-.857.353.354c4.084 4.084 4.084 10.73 0 14.813zM15.6 10.461l-5.14 5.14-.352-.353a3.639 3.639 0 0 1 0-5.14 3.638 3.638 0 0 1 5.14 0l.352.353zm1.21-1.914a5.849 5.849 0 0 0-8.263 0 5.85 5.85 0 0 0 0 8.263l.352.353-.856.856-.353-.352c-2.75-2.751-2.75-7.227 0-9.978 2.75-2.75 7.226-2.75 9.976 0l11.892 11.892-.857.856L16.81 8.547zM22 16.86L27.138 22l-5.14 5.139L16.86 22 22 16.86zM10.46 28.4l5.14 5.138-.353.353a3.638 3.638 0 0 1-5.139 0 3.639 3.639 0 0 1 0-5.14l.353-.351zm-.78-2.344l-1.134 1.133a5.85 5.85 0 0 0 0 8.264 5.85 5.85 0 0 0 8.263 0l.353-.353c1.741-1.74-.354-3.473-1.362-4.482l-.657-.661-3.12-3.121.856-.856 4.15 4.15.328.329c3.052 3.05.899 5.26.662 5.497l-.353.353c-2.75 2.752-7.226 2.75-9.977 0-2.75-2.75-2.75-7.226 0-9.977l11.892-11.89.856.857-5.92 5.92-4.837 4.837zM28.399 10.46l.353-.353a3.64 3.64 0 0 1 5.14 0 3.64 3.64 0 0 1 0 5.14l-.353.352-5.14-5.14zM5.271 5.27c4.084-4.084 10.73-4.084 14.814 0l11.89 11.89-.856.858L19.23 6.128c-3.613-3.612-9.489-3.612-13.1 0-3.613 3.612-3.613 9.489 0 13.1l.352.353-.857.857-.353-.352C1.187 16 1.187 9.356 5.271 5.27zm28.62 28.62a3.64 3.64 0 0 1-5.14 0l-.352-.352 5.14-5.14.352.352a3.64 3.64 0 0 1 0 5.14zm-9.977-28.62c4.085-4.084 10.73-4.084 14.814 0s4.084 10.73 0 14.814L26.837 31.976c-.91.911-1.132 1.992-.053 3.083l.406.394a5.85 5.85 0 0 0 8.263 0 5.85 5.85 0 0 0 0-8.263l-.352-.353.856-.856.353.353a7.061 7.061 0 0 1 0 9.976c-2.75 2.75-7.227 2.75-9.977 0 0 0-.173-.146-.407-.382-.215-.218-2.358-2.395.055-4.808l11.89-11.891c3.613-3.612 3.613-9.489 0-13.101-3.611-3.612-9.488-3.612-13.1 0l-.353.353-.856-.856.352-.354zM39.938 22l.353-.353c4.945-4.946 4.945-12.992 0-17.938-4.946-4.945-12.992-4.945-17.938 0L22 4.062l-.353-.353c-4.945-4.945-12.992-4.945-17.938 0-4.945 4.946-4.945 12.992 0 17.938l.353.353-.352.353c-4.946 4.945-4.946 12.991 0 17.938 4.945 4.945 12.992 4.945 17.937 0l.353-.353.353.353c4.946 4.945 12.992 4.945 17.938 0 4.945-4.947 4.945-12.993 0-17.938L39.938 22z"></path></svg></g><path fill="#5e00ff" fill-rule="nonzero" d="M7.18 18.82L3.67 19.10L3.67 3.77L0 3.77L0.26 0.96L10.82 0.96L10.54 3.77L7.18 3.77L7.18 18.82ZM15.48 19.27Q14.16 19.27 13.32 18.35Q12.48 17.42 12.48 15.86L12.48 15.86L12.48 5.74L15.84 5.45L15.84 14.50Q15.84 15.46 16.15 15.88Q16.46 16.30 17.11 16.30L17.11 16.30Q17.62 16.30 18.19 16.04Q18.77 15.79 19.22 15.24L19.22 15.24L19.22 5.74L22.61 5.45L22.61 18.82L19.22 19.10L19.22 17.38Q18.38 18.34 17.39 18.80Q16.39 19.27 15.48 19.27L15.48 19.27ZM30.12 19.22Q28.49 19.22 27.36 18.40Q26.23 17.57 26.23 15.46L26.23 15.46L26.23 7.99L24.36 7.99L24.50 5.45L26.33 5.45L26.66 2.52L29.59 2.11L29.59 5.45L32.38 5.45L32.23 7.99L29.62 7.99L29.62 15.43Q29.62 16.15 29.98 16.46Q30.34 16.78 31.03 16.78L31.03 16.78Q31.42 16.78 32.33 16.63L32.33 16.63L32.33 18.96Q32.23 18.98 31.57 19.10Q30.91 19.22 30.12 19.22L30.12 19.22ZM38.45 19.27Q36.05 19.27 34.78 17.36Q33.50 15.46 33.50 12.29L33.50 12.29Q33.50 9.07 34.80 7.18Q36.10 5.28 38.57 5.28L38.57 5.28Q40.92 5.28 42.17 7.18Q43.42 9.07 43.42 12.29L43.42 12.29Q43.42 12.48 43.34 12.56Q43.27 12.65 43.27 12.67L43.27 12.67L36.86 12.67Q36.86 14.23 37.27 15.52Q37.68 16.80 38.52 16.80L38.52 16.80Q39.46 16.80 39.91 15.72Q40.37 14.64 40.39 14.59L40.39 14.59L42.94 15.55Q42.43 17.28 41.33 18.28Q40.22 19.27 38.45 19.27L38.45 19.27ZM36.86 10.73L40.10 10.73Q40.10 9.29 39.72 8.45Q39.34 7.61 38.52 7.61L38.52 7.61Q38.11 7.61 37.73 8.02Q37.34 8.42 37.10 9.14Q36.86 9.86 36.86 10.73L36.86 10.73ZM50.57 19.30Q47.47 19.30 46.21 16.49Q44.95 13.68 44.95 9.58L44.95 9.58Q44.95 7.37 45.53 5.33Q46.10 3.29 47.39 1.96Q48.67 0.62 50.64 0.62L50.64 0.62Q52.15 0.62 53.29 1.56Q54.43 2.50 55.04 4.00Q55.66 5.50 55.66 7.13L55.66 7.13L52.25 7.30Q52.25 6.22 51.89 4.84Q51.53 3.46 50.45 3.46L50.45 3.46Q49.32 3.46 48.89 5.26Q48.46 7.06 48.46 9.58L48.46 9.58Q48.46 12.70 48.94 14.58Q49.42 16.46 50.78 16.46L50.78 16.46Q51.74 16.46 52.15 15.32Q52.56 14.18 52.68 12.55L52.68 12.55L55.68 12.84Q55.68 14.57 55.10 16.04Q54.53 17.52 53.38 18.41Q52.22 19.30 50.57 19.30L50.57 19.30ZM62.38 19.27Q59.95 19.27 58.64 17.35Q57.34 15.43 57.34 12.24L57.34 12.24Q57.34 9.07 58.63 7.18Q59.93 5.28 62.38 5.28L62.38 5.28Q64.80 5.28 66.13 7.18Q67.46 9.07 67.46 12.24L67.46 12.24Q67.46 15.41 66.13 17.34Q64.80 19.27 62.38 19.27L62.38 19.27ZM62.38 16.78Q63.46 16.78 63.77 15.46Q64.08 14.14 64.08 12.22L64.08 12.22Q64.08 10.30 63.77 8.98Q63.46 7.66 62.38 7.66L62.38 7.66Q61.30 7.66 61.01 8.90Q60.72 10.15 60.72 11.95L60.72 11.95Q60.72 14.16 61.01 15.47Q61.30 16.78 62.38 16.78L62.38 16.78ZM73.13 3.58L69.77 3.72L69.77 0.24L73.13 0L73.13 3.58ZM73.10 18.82L69.74 19.10L69.74 5.74L73.10 5.45L73.10 18.82ZM76.06 19.10L76.06 5.74L79.42 5.45L79.42 7.18Q80.45 6.26 81.44 5.77Q82.44 5.28 83.28 5.28L83.28 5.28Q84.55 5.28 85.36 6.20Q86.16 7.13 86.16 8.69L86.16 8.69L86.16 18.82L82.80 19.10L82.80 9.96Q82.80 8.16 81.58 8.16L81.58 8.16Q81.17 8.16 80.68 8.40Q80.18 8.64 79.42 9.10L79.42 9.10L79.42 18.82L76.06 19.10Z" transform="translate(36, 8.352)"></path></svg>