<?xml version="1.0" standalone="no"?>
<svg xmlns="http://www.w3.org/2000/svg" viewBox="0 0 122.16 36" width="122.16" height="36"><g fill="#a16aff" color="#a16aff" transform="translate(0 4.291666666666666) scale(0.5833334)"><svg width="48.0" height="47.0" x="0.0" y="0.0" viewBox="0 0 48 47"><path fill="currentColor" fill-rule="evenodd" d="M32.083 0l-.46.265-2.644 1.527-13.062 7.542L3.854 30.228.267 36.442l-.267.46 2.117 1.222 13.925 8.042.123.07H48V27.57l-.071-.124L34.953 4.97 32.083 0zM25.04 5.292l6.654-3.841 6.547 11.34-13.2-7.5zm-7.67 4.43l6.604-3.814 15.317 8.703 6.725 11.65-28.647-16.54zm-.531.92l29.566 17.07-29.566 17.07v-34.14zM9.171 40.97l-.123-17.615 6.728-11.65v33.078L9.17 40.97zm-7.72-4.457l6.547-11.338.107 15.18-6.654-3.842zm45.487-7.88v7.627l-15.194 8.912H18.29l28.648-16.54zm0 8.858v7.681H33.842l13.096-7.681zM23.567 22.294l9.384 5.42-9.384 5.417V22.294zm1.06 1.84v7.156l6.198-3.577-6.198-3.578z"></path></svg></g><path fill="#5e00ff" fill-rule="nonzero" d="M7.18 18.82L3.67 19.10L3.67 3.77L0 3.77L0.26 0.96L10.82 0.96L10.54 3.77L7.18 3.77L7.18 18.82ZM15.48 19.27Q14.16 19.27 13.32 18.35Q12.48 17.42 12.48 15.86L12.48 15.86L12.48 5.74L15.84 5.45L15.84 14.50Q15.84 15.46 16.15 15.88Q16.46 16.30 17.11 16.30L17.11 16.30Q17.62 16.30 18.19 16.04Q18.77 15.79 19.22 15.24L19.22 15.24L19.22 5.74L22.61 5.45L22.61 18.82L19.22 19.10L19.22 17.38Q18.38 18.34 17.39 18.80Q16.39 19.27 15.48 19.27L15.48 19.27ZM30.12 19.22Q28.49 19.22 27.36 18.40Q26.23 17.57 26.23 15.46L26.23 15.46L26.23 7.99L24.36 7.99L24.50 5.45L26.33 5.45L26.66 2.52L29.59 2.11L29.59 5.45L32.38 5.45L32.23 7.99L29.62 7.99L29.62 15.43Q29.62 16.15 29.98 16.46Q30.34 16.78 31.03 16.78L31.03 16.78Q31.42 16.78 32.33 16.63L32.33 16.63L32.33 18.96Q32.23 18.98 31.57 19.10Q30.91 19.22 30.12 19.22L30.12 19.22ZM38.45 19.27Q36.05 19.27 34.78 17.36Q33.50 15.46 33.50 12.29L33.50 12.29Q33.50 9.07 34.80 7.18Q36.10 5.28 38.57 5.28L38.57 5.28Q40.92 5.28 42.17 7.18Q43.42 9.07 43.42 12.29L43.42 12.29Q43.42 12.48 43.34 12.56Q43.27 12.65 43.27 12.67L43.27 12.67L36.86 12.67Q36.86 14.23 37.27 15.52Q37.68 16.80 38.52 16.80L38.52 16.80Q39.46 16.80 39.91 15.72Q40.37 14.64 40.39 14.59L40.39 14.59L42.94 15.55Q42.43 17.28 41.33 18.28Q40.22 19.27 38.45 19.27L38.45 19.27ZM36.86 10.73L40.10 10.73Q40.10 9.29 39.72 8.45Q39.34 7.61 38.52 7.61L38.52 7.61Q38.11 7.61 37.73 8.02Q37.34 8.42 37.10 9.14Q36.86 9.86 36.86 10.73L36.86 10.73ZM50.57 19.30Q47.47 19.30 46.21 16.49Q44.95 13.68 44.95 9.58L44.95 9.58Q44.95 7.37 45.53 5.33Q46.10 3.29 47.39 1.96Q48.67 0.62 50.64 0.62L50.64 0.62Q52.15 0.62 53.29 1.56Q54.43 2.50 55.04 4.00Q55.66 5.50 55.66 7.13L55.66 7.13L52.25 7.30Q52.25 6.22 51.89 4.84Q51.53 3.46 50.45 3.46L50.45 3.46Q49.32 3.46 48.89 5.26Q48.46 7.06 48.46 9.58L48.46 9.58Q48.46 12.70 48.94 14.58Q49.42 16.46 50.78 16.46L50.78 16.46Q51.74 16.46 52.15 15.32Q52.56 14.18 52.68 12.55L52.68 12.55L55.68 12.84Q55.68 14.57 55.10 16.04Q54.53 17.52 53.38 18.41Q52.22 19.30 50.57 19.30L50.57 19.30ZM62.38 19.27Q59.95 19.27 58.64 17.35Q57.34 15.43 57.34 12.24L57.34 12.24Q57.34 9.07 58.63 7.18Q59.93 5.28 62.38 5.28L62.38 5.28Q64.80 5.28 66.13 7.18Q67.46 9.07 67.46 12.24L67.46 12.24Q67.46 15.41 66.13 17.34Q64.80 19.27 62.38 19.27L62.38 19.27ZM62.38 16.78Q63.46 16.78 63.77 15.46Q64.08 14.14 64.08 12.22L64.08 12.22Q64.08 10.30 63.77 8.98Q63.46 7.66 62.38 7.66L62.38 7.66Q61.30 7.66 61.01 8.90Q60.72 10.15 60.72 11.95L60.72 11.95Q60.72 14.16 61.01 15.47Q61.30 16.78 62.38 16.78L62.38 16.78ZM73.13 3.58L69.77 3.72L69.77 0.24L73.13 0L73.13 3.58ZM73.10 18.82L69.74 19.10L69.74 5.74L73.10 5.45L73.10 18.82ZM76.06 19.10L76.06 5.74L79.42 5.45L79.42 7.18Q80.45 6.26 81.44 5.77Q82.44 5.28 83.28 5.28L83.28 5.28Q84.55 5.28 85.36 6.20Q86.16 7.13 86.16 8.69L86.16 8.69L86.16 18.82L82.80 19.10L82.80 9.96Q82.80 8.16 81.58 8.16L81.58 8.16Q81.17 8.16 80.68 8.40Q80.18 8.64 79.42 9.10L79.42 9.10L79.42 18.82L76.06 19.10Z" transform="translate(36, 8.352)"></path></svg>